<?xml version="1.0" encoding="utf-8"?>
<!-- Generator: Adobe Illustrator 18.1.0, SVG Export Plug-In . SVG Version: 6.00 Build 0)  -->
<!DOCTYPE svg PUBLIC "-//W3C//DTD SVG 1.1//EN" "http://www.w3.org/Graphics/SVG/1.1/DTD/svg11.dtd">
<svg version="1.1" id="Layer_1" xmlns="http://www.w3.org/2000/svg" xmlns:xlink="http://www.w3.org/1999/xlink" x="0px" y="0px"
	 viewBox="42 436 515 125" enable-background="new 42 436 515 125" xml:space="preserve">
<g>
	<path d="M548.6,535.4h-31.9V517h29.6v-17.4h-29.6v-15.8h31.1v-17.3h-52.4v86.3h53.3L548.6,535.4L548.6,535.4z M471,532.1h-32.4
		v-65.6h-21.3v86.3H471V532.1z M342.8,520.3l10.5-31.5l10.3,31.5H342.8z M364.9,466.4h-23.6l-31.2,86.3H332l5.9-17.5h30.6l5.8,17.5
		h21.8L364.9,466.4z M288.8,466.4h-19.3l-21.8,32.4L226,466.4h-19.3v86.3h20.7v-50l19.2,29h1.7l19.2-29v50h21.3L288.8,466.4
		L288.8,466.4z M180.4,535.4h-31.9V517h29.6v-17.4h-29.6v-15.8h31.1v-17.3h-52.4v86.3h53.3L180.4,535.4L180.4,535.4z M100.9,500.5
		H71.6v-16.7h29.3v-17.3H50.3v86.3h21.3v-35h29.3L100.9,500.5L100.9,500.5z"/>
	<g>
		<path stroke="#000000" stroke-width="0.5" stroke-miterlimit="10" d="M55.8,448c0-0.6-0.2-0.9-0.5-1.2c-0.3-0.3-0.6-0.4-0.8-0.4
			c-0.8,0-1.2,0.5-1.2,1.4c0,0.5,0.2,0.9,0.5,1.3c0.4,0.4,0.8,0.9,1.6,1.5c0.5,0.4,0.8,0.7,1.1,1c0.3,0.3,0.6,0.6,0.8,1
			c0.3,0.4,0.5,0.7,0.6,1.2c0.2,0.5,0.3,0.9,0.3,1.4c0,1.1-0.4,2-1,2.7c-0.7,0.6-1.7,0.9-2.8,0.9c-1.1,0-1.9-0.4-2.6-1.1
			s-1-1.7-1-2.8l2.3-0.4c0.1,0.7,0.2,1.2,0.5,1.6c0.3,0.4,0.6,0.6,1,0.6c0.5,0,0.7-0.1,1-0.4c0.3-0.2,0.4-0.6,0.4-0.9
			c0-0.6-0.2-1.1-0.6-1.5c-0.4-0.5-0.9-0.9-1.7-1.6c-0.5-0.4-0.8-0.7-1.1-1c-0.3-0.3-0.6-0.6-0.8-0.9c-0.3-0.4-0.5-0.7-0.6-1.2
			c-0.2-0.5-0.3-0.9-0.3-1.5c0-1.1,0.4-2,1-2.6c0.6-0.6,1.6-0.9,2.8-0.9c0.9,0,1.7,0.3,2.3,0.9c0.6,0.6,0.9,1.5,1,2.5L55.8,448z"/>
		<path stroke="#000000" stroke-width="0.5" stroke-miterlimit="10" d="M60.4,458.7v-14.2h2.4v14.1L60.4,458.7L60.4,458.7z"/>
		<path stroke="#000000" stroke-width="0.5" stroke-miterlimit="10" d="M65.6,458.7v-14.2h2.2l2.9,8.1l0,0v-8.1h2.2v14.1h-2.1
			l-3.1-8.8l0,0v8.8L65.6,458.7L65.6,458.7z"/>
		<path stroke="#000000" stroke-width="0.5" stroke-miterlimit="10" d="M78.6,451.5h4v7.2h-1.2l-0.5-1c-0.4,0.5-0.7,0.7-1.1,1
			c-0.4,0.2-0.8,0.3-1.4,0.3c-1,0-1.7-0.4-2.4-1c-0.6-0.6-0.9-1.6-0.9-2.7V448c0-1,0.3-1.9,0.9-2.6c0.6-0.6,1.5-1,2.7-1
			s2,0.4,2.7,1.1c0.6,0.7,0.9,1.7,0.9,2.8v0.9H80c0-1-0.1-1.7-0.4-2.1c-0.2-0.4-0.6-0.6-1.1-0.6c-0.4,0-0.6,0.1-0.7,0.4
			c-0.2,0.3-0.1,0.6-0.1,1.1v7.3c0,0.5,0.1,0.8,0.3,1.1c0.2,0.3,0.5,0.4,0.8,0.4c0.5,0,0.8-0.2,1-0.5c0.2-0.3,0.3-0.8,0.3-1.5v-1.4
			h-1.5V451.5z"/>
		<path stroke="#000000" stroke-width="0.5" stroke-miterlimit="10" d="M87.6,458.7h-2.4l2.7-14.2h3l2.6,14.1h-2.4l-0.4-3H88
			L87.6,458.7z M88.4,453.5h1.9l-0.9-6.1l0,0L88.4,453.5z"/>
		<path stroke="#000000" stroke-width="0.5" stroke-miterlimit="10" d="M95.9,458.7v-14.2h3.5c1.5,0,2.6,0.4,3.3,1
			c0.7,0.6,1,1.7,1,3.2c0,1.5-0.4,2.6-1,3.2c-0.7,0.6-1.8,1-3.3,1h-1v5.8L95.9,458.7L95.9,458.7z M98.3,450.9h0.9
			c0.8,0,1.4-0.2,1.7-0.5c0.3-0.3,0.5-0.9,0.5-1.7s-0.2-1.4-0.5-1.7c-0.3-0.3-0.8-0.5-1.7-0.5h-0.9V450.9z"/>
		<path stroke="#000000" stroke-width="0.5" stroke-miterlimit="10" d="M105.7,448c0-1,0.3-1.9,0.9-2.6c0.6-0.6,1.6-1,2.8-1
			c1.2,0,2.1,0.4,2.8,1c0.6,0.6,0.9,1.6,0.9,2.6v7.3c0,1-0.3,1.9-0.9,2.6c-0.6,0.6-1.6,1-2.8,1c-1.2,0-2.1-0.4-2.8-1
			c-0.6-0.6-0.9-1.6-0.9-2.6V448z M108.1,455.2c0,0.6,0.1,0.9,0.3,1.2c0.2,0.3,0.6,0.4,1,0.4c0.5,0,0.8-0.1,1-0.4
			c0.2-0.3,0.3-0.6,0.3-1.2V448c0-0.6-0.1-0.9-0.3-1.2c-0.2-0.3-0.6-0.4-1-0.4c-0.5,0-0.8,0.1-1,0.4c-0.2,0.3-0.3,0.6-0.3,1.2V455.2
			z"/>
		<path stroke="#000000" stroke-width="0.5" stroke-miterlimit="10" d="M117.8,458.7h-2.4v-14.2h3.4c1.4,0,2.4,0.4,3.1,1
			c0.6,0.6,1,1.7,1,3.2c0,1-0.2,1.8-0.5,2.4c-0.3,0.6-0.7,0.9-1.2,1.2l2,6.3h-2.5l-1.7-5.9c-0.2,0-0.4,0-0.6,0c-0.3,0-0.5,0-0.6,0
			L117.8,458.7L117.8,458.7z M117.8,450.9h0.8c0.6,0,1.1-0.2,1.4-0.5c0.3-0.3,0.4-0.9,0.4-1.7c0-0.8-0.1-1.4-0.4-1.7
			c-0.3-0.3-0.7-0.5-1.4-0.5h-0.8V450.9z"/>
		<path stroke="#000000" stroke-width="0.5" stroke-miterlimit="10" d="M126.3,458.7v-14.2h6.5v2.1h-4v3.7h3.1v2.1h-3.1v4.1h4.3v2.1
			C133.1,458.7,126.3,458.7,126.3,458.7z"/>
		<path stroke="#000000" stroke-width="0.5" stroke-miterlimit="10" d="M138.3,446.8l-1.4,2.4h-1l0.9-2.4h-0.9v-2.3h2.3L138.3,446.8
			L138.3,446.8z"/>
		<path stroke="#000000" stroke-width="0.5" stroke-miterlimit="10" d="M145.9,448c0-0.6-0.2-0.9-0.5-1.2c-0.3-0.3-0.6-0.4-0.8-0.4
			c-0.8,0-1.2,0.5-1.2,1.4c0,0.5,0.2,0.9,0.5,1.3c0.4,0.4,0.8,0.9,1.6,1.5c0.5,0.4,0.8,0.7,1.1,1c0.3,0.3,0.6,0.6,0.8,1
			c0.3,0.4,0.5,0.7,0.6,1.2c0.2,0.5,0.3,0.9,0.3,1.4c0,1.1-0.4,2-1,2.7c-0.7,0.6-1.7,0.9-2.8,0.9s-1.9-0.4-2.6-1.1s-1-1.7-1-2.8
			l2.3-0.4c0.1,0.7,0.2,1.2,0.5,1.6c0.3,0.4,0.6,0.6,1,0.6c0.5,0,0.7-0.1,1-0.4c0.3-0.2,0.4-0.6,0.4-0.9c0-0.6-0.2-1.1-0.6-1.5
			c-0.4-0.5-0.9-0.9-1.7-1.6c-0.5-0.4-0.8-0.7-1.1-1c-0.3-0.3-0.6-0.6-0.8-0.9c-0.3-0.4-0.5-0.7-0.6-1.2c-0.2-0.5-0.3-0.9-0.3-1.5
			c0-1.1,0.4-2,1-2.6c0.6-0.6,1.6-0.9,2.8-0.9c0.9,0,1.7,0.3,2.3,0.9c0.6,0.6,0.9,1.5,1,2.5L145.9,448z"/>
		<path stroke="#000000" stroke-width="0.5" stroke-miterlimit="10" d="M166.7,454.5h-1.4l-0.5,4.1h-1.7l0.5-4.1H162l-0.5,4.1h-1.7
			l0.5-4.1H159v-1.6h1.5l0.3-2.7h-1.3v-1.6h1.5l0.6-4.1h1.7l-0.5,4.1h1.6l0.5-4.1h1.7l-0.5,4.1h1.3v1.6H166l-0.3,2.7h1.2v1.6H166.7z
			 M162.5,450.2l-0.3,2.7h1.6l0.3-2.7H162.5z"/>
		<path stroke="#000000" stroke-width="0.5" stroke-miterlimit="10" d="M170.8,447.5h-1.9v-1.3c1.2-0.6,2.2-1.2,2.9-1.8h1.2v14.4
			h-2.2L170.8,447.5L170.8,447.5z"/>
		<path stroke="#000000" stroke-width="0.5" stroke-miterlimit="10" d="M185.9,458.7v-14.2h6.8v2.1h-4.3v3.7h3.2v2.1h-3.2v6.3
			C188.4,458.7,185.9,458.7,185.9,458.7z"/>
		<path stroke="#000000" stroke-width="0.5" stroke-miterlimit="10" d="M196.1,458.7h-2.4l2.6-14.1h3l2.6,14.1h-2.4l-0.5-3.1h-2.6
			L196.1,458.7z M196.8,453.5h1.9l-0.9-6.1l0,0L196.8,453.5z"/>
		<path stroke="#000000" stroke-width="0.5" stroke-miterlimit="10" d="M208.8,448c0-0.6-0.2-0.9-0.5-1.2c-0.3-0.3-0.6-0.4-0.8-0.4
			c-0.8,0-1.2,0.5-1.2,1.4c0,0.5,0.2,0.9,0.5,1.3c0.4,0.4,0.8,0.9,1.6,1.5c0.5,0.4,0.8,0.7,1.1,1c0.3,0.3,0.6,0.6,0.8,1
			c0.3,0.4,0.5,0.7,0.6,1.2c0.2,0.5,0.3,0.9,0.3,1.4c0,1.1-0.4,2-1,2.7c-0.7,0.6-1.7,0.9-2.8,0.9s-1.9-0.4-2.6-1.1s-1-1.7-1-2.8
			l2.3-0.4c0.1,0.7,0.2,1.2,0.5,1.6c0.3,0.4,0.6,0.6,1,0.6c0.5,0,0.7-0.1,1-0.4c0.3-0.2,0.4-0.6,0.4-0.9c0-0.6-0.2-1.1-0.6-1.5
			c-0.4-0.5-0.9-0.9-1.7-1.6c-0.5-0.4-0.8-0.7-1.1-1c-0.3-0.3-0.6-0.6-0.8-0.9c-0.3-0.4-0.5-0.7-0.6-1.2c-0.2-0.5-0.3-0.9-0.3-1.5
			c0-1.1,0.4-2,1-2.6c0.6-0.6,1.6-0.9,2.8-0.9c0.9,0,1.7,0.3,2.3,0.9c0.6,0.6,0.9,1.5,1,2.5L208.8,448z"/>
		<path stroke="#000000" stroke-width="0.5" stroke-miterlimit="10" d="M214.2,458.7v-14.2h2.4v5.7h2.6v-5.7h2.4v14.1h-2.4v-6.3
			h-2.6v6.3L214.2,458.7L214.2,458.7z"/>
		<path stroke="#000000" stroke-width="0.5" stroke-miterlimit="10" d="M224.2,458.7v-14.2h2.4v14.1L224.2,458.7L224.2,458.7z"/>
		<path stroke="#000000" stroke-width="0.5" stroke-miterlimit="10" d="M229.4,448c0-1,0.3-1.9,0.9-2.6c0.6-0.6,1.6-1,2.8-1
			s2.1,0.4,2.8,1c0.6,0.6,0.9,1.6,0.9,2.6v7.3c0,1-0.3,1.9-0.9,2.6s-1.6,1-2.8,1s-2.1-0.4-2.8-1c-0.6-0.6-0.9-1.6-0.9-2.6L229.4,448
			L229.4,448z M231.8,455.2c0,0.6,0.1,0.9,0.3,1.2c0.2,0.3,0.6,0.4,1,0.4c0.5,0,0.8-0.1,1-0.4c0.2-0.3,0.3-0.6,0.3-1.2V448
			c0-0.6-0.1-0.9-0.3-1.2c-0.2-0.3-0.6-0.4-1-0.4c-0.5,0-0.8,0.1-1,0.4c-0.2,0.3-0.3,0.6-0.3,1.2V455.2z"/>
		<path stroke="#000000" stroke-width="0.5" stroke-miterlimit="10" d="M239.1,458.7v-14.2h2.2l2.9,8.1l0,0v-8.1h2.2v14.1h-2.1
			l-3.1-8.8l0,0v8.8L239.1,458.7L239.1,458.7z"/>
		<path stroke="#000000" stroke-width="0.5" stroke-miterlimit="10" d="M266.3,452.3c-0.1,0.5-0.3,1-0.5,1.5
			c-0.2,0.5-0.5,1.1-0.7,1.7l-0.2,0.5c0.4,0.4,0.8,0.6,1.4,0.6v2.1c-1.1,0-2-0.4-2.8-1.1c-0.4,0.4-0.8,0.6-1.2,0.8
			c-0.5,0.2-0.9,0.3-1.6,0.3c-1,0-1.8-0.3-2.5-0.9c-0.6-0.6-0.9-1.4-0.9-2.4c0-0.7,0.2-1.4,0.6-2.1c0.4-0.7,0.8-1.3,1.3-1.9
			c-0.4-0.7-0.6-1.4-0.8-2.1c-0.2-0.6-0.3-1.3-0.3-1.8c0-1,0.3-1.7,0.8-2.4s1.3-0.9,2.3-0.9c0.9,0,1.6,0.3,2.1,0.8
			c0.6,0.6,0.7,1.3,0.7,2.1c0,0.7-0.2,1.4-0.6,1.9c-0.4,0.6-0.9,1.3-1.7,2l-0.3,0.3c0.6,1.1,1.1,2,1.7,2.9c0.5-1.1,0.7-2,0.8-2.6
			L266.3,452.3z M260,456.3c0.3,0.3,0.6,0.5,1,0.5c0.3,0,0.5,0,0.6-0.1c0.2-0.1,0.4-0.2,0.6-0.4c-0.8-1-1.5-1.9-1.9-2.9
			c-0.3,0.4-0.4,0.6-0.5,0.8s-0.1,0.6-0.1,0.8C259.7,455.7,259.7,456,260,456.3z M260.3,448.5c0.1,0.5,0.3,0.9,0.5,1.4
			c0.4-0.5,0.6-0.9,0.8-1.3c0.2-0.4,0.3-0.8,0.3-1.3c0-0.6-0.1-0.9-0.2-1.2c-0.2-0.3-0.4-0.4-0.6-0.4c-0.6,0-0.9,0.5-0.9,1.4
			C260.1,447.6,260.2,448,260.3,448.5z"/>
		<path stroke="#000000" stroke-width="0.5" stroke-miterlimit="10" d="M276,444.5h3.6c1.3,0,2.2,0.3,2.9,0.9
			c0.6,0.6,0.9,1.6,0.9,2.8c0,0.6-0.2,1.3-0.5,1.8s-0.7,0.9-1.3,1.2c0.6,0.3,1.1,0.7,1.5,1.2c0.4,0.6,0.5,1.2,0.5,2.1
			c0,1.3-0.3,2.2-0.9,2.9c-0.6,0.7-1.6,1.1-2.9,1.1h-3.9L276,444.5L276,444.5z M278.4,450.3h0.9c0.5,0,0.8-0.2,1.2-0.5
			c0.3-0.3,0.5-0.7,0.5-1.3c0-1.3-0.6-2-1.6-2h-0.9L278.4,450.3L278.4,450.3z M278.4,456.7h1c0.6,0,1.1-0.2,1.4-0.6s0.4-0.9,0.4-1.7
			s-0.2-1.3-0.5-1.7c-0.3-0.4-0.8-0.6-1.6-0.6h-0.8L278.4,456.7L278.4,456.7z"/>
		<path stroke="#000000" stroke-width="0.5" stroke-miterlimit="10" d="M285.8,458.7v-14.2h6.5v2.1h-4v3.7h3.1v2.1h-3.1v4.1h4.3v2.1
			C292.6,458.7,285.8,458.7,285.8,458.7z"/>
		<path stroke="#000000" stroke-width="0.5" stroke-miterlimit="10" d="M296.9,458.7h-2.4l2.6-14.1h3l2.6,14.1h-2.4l-0.5-3.1h-2.7
			L296.9,458.7z M297.8,453.5h1.9l-0.9-6.1l0,0L297.8,453.5z"/>
		<path stroke="#000000" stroke-width="0.5" stroke-miterlimit="10" d="M305.3,444.5h2.4v10.7c0,1,0.5,1.6,1.3,1.6s1.3-0.6,1.3-1.6
			v-10.7h2.4v10.6c0,1.2-0.4,2.1-1,2.8c-0.6,0.6-1.6,1-2.8,1c-1.2,0-2-0.4-2.8-1c-0.6-0.6-1-1.6-1-2.8v-10.6H305.3z"/>
		<path stroke="#000000" stroke-width="0.5" stroke-miterlimit="10" d="M317.5,446.6h-2.4v-2.1h7.1v2.1h-2.3v12.1h-2.4V446.6z"/>
		<path stroke="#000000" stroke-width="0.5" stroke-miterlimit="10" d="M329.2,458.7h-2.4v-5.9l-2.9-8.3h2.5l1.7,5.3l0,0l1.7-5.3
			h2.5l-2.9,8.3V458.7L329.2,458.7z"/>
		<path stroke="#000000" stroke-width="0.5" stroke-miterlimit="10" d="M344.9,449.3v-1.1c0-0.6-0.1-1-0.4-1.3
			c-0.2-0.3-0.5-0.5-0.8-0.5c-0.5,0-0.8,0.1-1,0.4c-0.2,0.3-0.3,0.6-0.3,1.2v7.2c0,0.6,0.1,0.9,0.3,1.2s0.6,0.4,1,0.4
			s0.7-0.1,0.9-0.4c0.2-0.3,0.3-0.6,0.3-1.1v-1.7h2.4v1.7c0,1-0.3,1.9-0.9,2.6c-0.6,0.6-1.5,1-2.7,1s-2.1-0.4-2.8-1
			c-0.6-0.6-0.9-1.6-0.9-2.6V448c0-1,0.3-1.9,0.9-2.6c0.6-0.6,1.6-1,2.8-1s2,0.4,2.7,1.1c0.6,0.7,0.9,1.7,0.9,2.8v1
			C347.3,449.3,344.9,449.3,344.9,449.3z"/>
		<path stroke="#000000" stroke-width="0.5" stroke-miterlimit="10" d="M349.7,444.5h2.4v10.7c0,1,0.5,1.6,1.3,1.6s1.3-0.6,1.3-1.6
			v-10.7h2.4v10.6c0,1.2-0.4,2.1-1,2.8c-0.6,0.6-1.6,1-2.8,1c-1.2,0-2-0.4-2.8-1c-0.6-0.6-1-1.6-1-2.8v-10.6H349.7z"/>
		<path stroke="#000000" stroke-width="0.5" stroke-miterlimit="10" d="M362,458.7h-2.4v-14.2h3.4c1.4,0,2.4,0.4,3.1,1
			c0.6,0.6,1,1.7,1,3.2c0,1-0.2,1.8-0.5,2.4c-0.3,0.6-0.7,0.9-1.2,1.2l2,6.3H365l-1.7-5.9c-0.2,0-0.4,0-0.6,0c-0.3,0-0.5,0-0.6,0
			L362,458.7L362,458.7z M362,450.9h0.8c0.6,0,1.1-0.2,1.4-0.5c0.3-0.3,0.4-0.9,0.4-1.7c0-0.8-0.1-1.4-0.4-1.7
			c-0.3-0.3-0.7-0.5-1.4-0.5H362V450.9z"/>
		<path stroke="#000000" stroke-width="0.5" stroke-miterlimit="10" d="M371.8,458.7h-2.4l2.6-14.1h3l2.6,14.1h-2.4l-0.5-3.1h-2.7
			L371.8,458.7z M372.6,453.5h1.9l-0.9-6.1l0,0L372.6,453.5z"/>
		<path stroke="#000000" stroke-width="0.5" stroke-miterlimit="10" d="M380.5,446.6h-2.4v-2.1h7.1v2.1h-2.3v12.1h-2.4V446.6z"/>
		<path stroke="#000000" stroke-width="0.5" stroke-miterlimit="10" d="M386.6,448c0-1,0.3-1.9,0.9-2.6s1.6-1,2.8-1
			c1.2,0,2.1,0.4,2.8,1c0.6,0.6,0.9,1.6,0.9,2.6v7.3c0,1-0.3,1.9-0.9,2.6c-0.6,0.6-1.6,1-2.8,1c-1.2,0-2.1-0.4-2.8-1
			s-0.9-1.6-0.9-2.6V448z M389.1,455.2c0,0.6,0.1,0.9,0.3,1.2c0.2,0.3,0.6,0.4,1,0.4c0.5,0,0.8-0.1,1-0.4c0.2-0.3,0.3-0.6,0.3-1.2
			V448c0-0.6-0.1-0.9-0.3-1.2c-0.2-0.3-0.6-0.4-1-0.4c-0.5,0-0.8,0.1-1,0.4c-0.2,0.3-0.3,0.6-0.3,1.2V455.2z"/>
		<path stroke="#000000" stroke-width="0.5" stroke-miterlimit="10" d="M398.9,458.7h-2.4v-14.2h3.4c1.4,0,2.4,0.4,3.1,1
			c0.6,0.6,1,1.7,1,3.2c0,1-0.2,1.8-0.5,2.4c-0.3,0.6-0.7,0.9-1.2,1.2l2,6.3h-2.5l-1.7-5.9c-0.2,0-0.4,0-0.6,0c-0.3,0-0.5,0-0.6,0
			L398.9,458.7L398.9,458.7z M398.9,450.9h0.8c0.6,0,1.1-0.2,1.4-0.5c0.3-0.3,0.4-0.9,0.4-1.7c0-0.8-0.1-1.4-0.4-1.7
			c-0.3-0.3-0.7-0.5-1.4-0.5h-0.8V450.9z"/>
	</g>
</g>
</svg>
