<?xml version="1.0" encoding="utf-8"?>
<!-- Generator: Adobe Illustrator 21.0.0, SVG Export Plug-In . SVG Version: 6.00 Build 0)  -->
<svg version="1.1" id="Layer_1" xmlns="http://www.w3.org/2000/svg" xmlns:xlink="http://www.w3.org/1999/xlink" x="0px" y="0px"
	 viewBox="0 0 824 352" style="enable-background:new 0 0 824 352;" xml:space="preserve">
<style type="text/css">
	.st0{fill:#FFFFFF;}
</style>
<title>favful-logo copy 5</title>
<desc>Created with Sketch.</desc>
<g id="Page-1">
	<g id="favful-logo-copy-5">
		<path id="Fill-1" class="st0" d="M669.5,240.9c0,13.5,2.7,25.4,6.4,27.9c2.7,1.9,7.3,6.9,8.2,9.1c1.2,2.8,5.8,5.3,11.2,6
			c-0.3-1.6-0.3-1.9-0.3-9.1c0-26.3,9.1-67.1,26.1-116.1c20-57.4,42.7-99.7,74.3-138.3c-3.3-5.3-24.3-17.9-34-19.8
			C740.4,27,718.6,73.7,693.7,144C678.3,187.9,669.5,222.7,669.5,240.9L669.5,240.9z M605.7,254.1c9.4,6.6,23.3,12.2,28.8,12.2
			c0,0,1.2-0.3,1.2-1.3c0-4.1-6.7-11-6.7-28.9c0-32.9,23.3-68.1,38.2-104.8c-3.6-4.7-18.2-10-28.8-10c-13.6,13.5-20,31.7-23.6,42
			c-6.7,18.5-21.5,37.6-29.7,49.2c-16.7,23.5-24.9,33.9-30.9,36.4c-0.6-0.6-2.1-2.5-2.1-5.6c0-11,8.8-39.5,12.7-48.9
			c18.2-44.5,34.9-68.4,38.5-72.5c-6.1-7.2-20-9.7-27-9.7c-25.5,19.1-47,72.1-54.3,103.8c-1.8,8.8-2.4,15.1-2.4,26.7
			c3.3,14.7,20.3,23.8,33,24.5c2.7-0.3,7.9-4.1,13-9.7c6.7-8.2,28.5-40.5,31.8-40.2c-0.9,2.8-1.5,6.6-1.5,11.3
			C596,235.9,598.1,247.5,605.7,254.1L605.7,254.1z M500.4,140.8l33.3,1.9c-0.3-7.8-2.1-16.6-3.9-18.5l-25.5,0.9
			c17.3-53.6,38.2-90.7,51.5-90.7c-1.2,8.2-1.5,11-1.5,13.5c0,4.7,0.6,6.9,2.1,10.7c0.9,4.1,1.5,8.2,1.8,12.9
			c0.3,6.6,1.2,9.1,3.6,9.1c5.5-4.4,10.9-14.4,16.1-30.1c2.4-9.7,6.4-20.7,9.7-26.7c-3.9-2.8-7.3-4.1-9.4-4.1
			c-4.2,0-11.5,2.8-15.2,5.6c-2.4,0-7.3-0.9-12.1-0.9c-33,0-65.5,39.8-84.6,103.2c-14.9,2.2-29.1,5.3-33,6.9c0,2.5,1.2,6,2.7,7.5
			c7.3-1.3,13.6-1.6,27-1.6c-28.8,105.1-36.4,142.4-43,185.4c6.4,3.8,9.4,7.8,10.3,13.8c0.9,5.6,3.9,9.7,9.1,11.9
			C445.8,316.2,470.1,234.9,500.4,140.8z M306.9,149.9c0,7.5,0.9,23.2,0.9,37c0,47.4-10.9,59.6-10.9,69.9c0,7.5,6.4,15.1,17,19.1
			c27.3-17.3,44.9-34.5,64.3-58c19.1-22.6,50.9-64,52.4-99.7c-2.4-2.8-13.6-7.2-18.8-7.2c-7.6,29.8-20.9,58-30.6,75.3
			c-14.2,24.5-35.2,51.8-47,61.2c-0.6,0-0.9,0-0.9-1.3c6.7-22.3,7.6-43,8.2-71.5c0.6-28.2,1.2-33.6,4.5-47.4
			c-3.3-3.1-11.5-4.4-17.3-4.4C310.2,123,306.9,134.6,306.9,149.9L306.9,149.9z M259.2,134.3c-8.8,18.8-20.9,42.3-29.4,57.1
			c-21.8,37.6-36.4,55.2-48.2,57.7c-2.7-0.9-4.2-3.1-4.2-7.5c0-38.6,39.7-94.1,72.1-99.4c-0.9-7.8-14.6-22.6-22.7-24.8
			c-32.7,1.9-76.4,65.9-76.4,112.6c0,21.6,10.3,37.3,25.2,38c18.8-3.1,45.5-34.5,61.8-72.8c-7.6,20.4-11.5,37.3-11.5,48.9
			c0,15.7,5.5,23.2,16.4,23.2c6.1,0,14.9-2.5,19.7-5.6c-5.5-3.1-7.9-11.3-7.9-22.9c0-21.3,11.2-58.3,27.6-93.5
			C281.9,141.2,267.7,134.3,259.2,134.3L259.2,134.3z M124.2,130.2c-9.7,0-24.9,1.9-40.6,4.4c22.7-53,28.5-65.6,33.3-73.1
			c15.5-2.5,32.4-4.7,52.7-4.7c6.1,0,13.3,0.3,26.1,1.6c-3.9-18.2-11.5-28.9-20.9-28.9c-13.6,0-53.4,6.9-104,6.9
			c-12.1,0-18.5-0.3-26.1-1.6C43.2,38,42,43.6,42,46.7C42,59,52.3,67.1,67.8,67.1h1.5c-5.2,25.4-11.2,42-23,74.7
			c-13.3,3.1-23.3,6-25.5,8.2c2.4,6.9,8.5,12.5,16.7,15.4C15.7,223,6.9,245.6,0.8,258.8c9.4,16,19.4,24.5,33,27.6
			c6.4-37.6,17.9-75.9,36.1-120.1c16.4-2.2,35.5-6.6,53.4-6.6c8.8,0,15.2,0.6,20.3,1.6c1.2-2.5,1.5-6.6,1.5-9.7
			C145.1,138,137.2,130.2,124.2,130.2z M781.9,268c-0.5-0.5-4.8-2.7-16.1-10.9c-34.1-24.8-26.5-42.1-18.7-49.7
			c5.9-5.8,13.6-7.8,21.6-5.3c5.3,1.6,9.7,5.4,12.2,10.2c0.4,0.7,1,2.1,1,2.1c0,0,0.6-1.4,1-2.1c2.6-4.8,7-8.5,12.2-10.2
			c8-2.5,15.7-0.4,21.6,5.3c5.5,5.4,10.9,15.5,1.7,29.7c-3.9,6-10.3,12.7-20.4,20C786.7,265.2,782.4,267.5,781.9,268z"/>
	</g>
</g>
</svg>
