<?xml version="1.0" encoding="UTF-8" standalone="no"?>
<svg width="824px" height="352px" viewBox="0 0 824 352" version="1.1" xmlns="http://www.w3.org/2000/svg" xmlns:xlink="http://www.w3.org/1999/xlink">
    <title>favful-logo copy 5</title>
    <desc>Created with Sketch.</desc>
    <defs></defs>
    <g id="Page-1" stroke="none" stroke-width="1" fill="none" fill-rule="evenodd">
        <g id="favful-logo-copy-5" fill="#ED145B">
            <path d="M669.4842,240.90938 C669.4842,254.397209 672.213204,266.317178 675.850507,268.825753 C678.578141,270.708597 683.126481,275.72716 684.03478,277.922163 C685.247214,280.745723 689.795554,283.255711 695.252193,283.882854 C694.948057,282.313582 694.948057,282.000011 694.948057,274.786444 C694.948057,248.43793 704.043367,207.659458 721.020185,158.726705 C741.027403,101.323273 763.763625,58.9783541 795.291022,20.3962982 C791.956486,15.0641635 771.0396,2.5170501 761.337387,0.634206227 C740.420501,26.9827206 718.593947,73.7204708 693.735622,143.983176 C678.275375,187.897366 669.4842,222.716559 669.4842,240.90938 L669.4842,240.90938 Z M605.712905,254.083637 C615.110982,260.670059 629.05603,266.317178 634.512668,266.317178 C634.512668,266.317178 635.725102,266.003606 635.725102,265.061478 C635.725102,260.983631 629.05603,254.083637 629.05603,236.204389 C629.05603,203.268039 652.397784,168.136687 667.252499,131.436062 C663.615197,126.731071 649.063248,121.398937 638.454107,121.398937 C624.811825,134.886766 618.445519,153.079586 614.808216,163.431696 C608.139144,181.938088 593.284428,201.073036 585.098786,212.678021 C568.426104,236.204389 560.240461,246.555086 554.178291,249.065074 C553.571389,248.43793 552.056188,246.555086 552.056188,243.417955 C552.056188,232.440113 560.847363,203.895183 564.787432,194.485201 C582.976683,149.943867 599.650735,126.103928 603.288037,122.02608 C597.225867,114.812514 583.279449,112.302527 576.307611,112.302527 C550.843754,131.436062 529.319966,184.448075 522.043992,216.128725 C520.224655,224.911563 519.619123,231.185826 519.619123,242.790811 C522.95366,257.53434 539.930477,266.63075 552.66172,267.257894 C555.390725,266.944322 560.544597,263.180047 565.6971,257.53434 C572.366172,249.378646 594.194096,217.06944 597.527263,217.383012 C596.618965,220.206572 596.012063,223.970847 596.012063,228.675838 C596.012063,235.890817 598.134165,247.495802 605.712905,254.083637 L605.712905,254.083637 Z M500.410605,140.847457 L533.757338,142.728888 C533.453202,134.886766 531.635236,126.103928 529.8159,124.222496 L504.352043,125.163212 C521.631627,71.5254675 542.548513,34.5112711 555.886658,34.5112711 C554.674224,42.6669655 554.371458,45.490525 554.371458,47.9991002 C554.371458,52.7040912 554.97836,54.9005069 556.49356,58.6647822 C557.403228,62.7412169 558.00876,66.8204765 558.312896,71.5254675 C558.615662,78.1118898 559.525331,80.6218775 561.950199,80.6218775 C567.406837,76.2304585 572.863476,66.1919203 578.017348,50.5090879 C580.442217,40.7855341 584.382285,29.8062802 587.718191,23.8470016 C583.776753,21.023442 580.442217,19.7691544 578.320114,19.7691544 C574.07591,19.7691544 566.799935,22.5913015 563.162633,25.4148611 C560.737765,25.4148611 555.886658,24.4741454 551.036922,24.4741454 C517.992955,24.4741454 485.557259,64.3104889 466.45834,127.6732 C451.603624,129.868203 437.355811,133.005334 433.414373,134.573194 C433.414373,137.083182 434.628177,140.532472 436.143377,142.101744 C443.419351,140.847457 449.785658,140.532472 463.123803,140.532472 C434.324041,245.61437 426.7453,282.942139 420.076227,325.914201 C426.442534,329.678476 429.474304,333.756324 430.383972,339.717015 C431.29364,345.362721 434.324041,349.440568 439.477913,351.635572 C445.84422,316.190647 470.095642,234.948688 500.410605,140.847457 Z M306.89242,149.943867 C306.89242,157.472417 307.802088,173.15525 307.802088,186.956651 C307.802088,234.321545 296.888811,246.555086 296.888811,256.905784 C296.888811,264.434334 303.255118,271.962885 313.864259,276.040732 C341.148821,258.788628 358.731171,241.536523 378.132857,218.010156 C397.230406,195.425917 429.06194,154.021714 430.57714,118.261805 C428.152271,115.439658 416.934858,111.048239 411.782356,111.048239 C404.203615,140.847457 390.8641,169.077403 381.163257,186.329507 C366.915444,210.79659 345.998558,238.08582 334.175612,247.495802 C333.57008,247.495802 333.265944,247.495802 333.265944,246.241514 C339.935017,223.970847 340.844685,203.268039 341.451587,174.723109 C342.057119,146.493163 342.664021,141.161029 345.998558,127.359628 C342.664021,124.222496 334.478379,122.966796 328.718974,122.966796 C310.226956,122.966796 306.89242,134.573194 306.89242,149.943867 L306.89242,149.943867 Z M259.188275,134.259622 C250.3971,153.079586 238.271389,176.605953 229.78298,191.34807 C207.956426,228.98941 193.404477,246.555086 181.582901,249.065074 C178.853897,248.122946 177.338697,245.927942 177.338697,241.536523 C177.338697,202.954467 217.050367,147.433879 249.487432,142.101744 C248.577764,134.259622 234.936852,119.517505 226.75121,117.321089 C194.011379,119.203933 150.35827,183.192375 150.35827,229.930126 C150.35827,251.573649 160.664645,267.257894 175.519361,267.885038 C194.314145,264.747906 220.991805,233.380829 237.361721,195.112345 C229.78298,215.501581 225.841542,232.440113 225.841542,244.045098 C225.841542,259.729343 231.29818,267.257894 242.211457,267.257894 C248.274998,267.257894 257.066173,264.747906 261.917279,261.612187 C256.460641,258.475056 254.034402,250.319361 254.034402,238.712964 C254.034402,217.383012 265.251815,180.370228 281.621731,145.238876 C281.924497,141.161029 267.676684,134.259622 259.188275,134.259622 L259.188275,134.259622 Z M124.177913,130.181775 C114.47707,130.181775 99.319589,132.064619 83.5552055,134.573194 C106.291428,81.5625932 112.052202,69.0154798 116.901939,61.4869293 C132.362186,58.9783541 149.339004,56.7819383 169.650358,56.7819383 C175.712528,56.7819383 182.988503,57.0955102 195.721116,58.3512103 C191.779678,40.1569778 184.200937,29.4927083 174.80286,29.4927083 C161.161949,29.4927083 121.448909,36.3927025 70.8239622,36.3927025 C58.6968811,36.3927025 52.3305745,36.0791306 44.7518338,34.824843 C43.2366336,37.9619745 42.0241995,43.6076811 42.0241995,46.7448126 C42.0241995,58.9783541 52.3305745,67.1340484 67.792192,67.1340484 L69.3073921,67.1340484 C64.1535196,92.5404346 58.091349,109.165395 46.2684039,141.788172 C32.9302586,144.925304 22.9252797,147.747451 20.8045475,149.943867 C23.2294157,156.843861 29.2915863,162.49098 37.4772291,165.313127 C15.650675,223.030131 6.85813016,245.61437 0.795959573,258.788628 C10.1940365,274.786444 20.1976454,283.255711 33.8385567,286.39143 C40.2048633,248.750089 51.7250424,210.483018 69.9142942,166.255255 C86.2842097,164.05884 105.38176,159.667421 123.268245,159.667421 C132.05942,159.667421 138.425727,160.294564 143.579599,161.23528 C144.792033,158.726705 145.094799,154.648858 145.094799,151.511726 C145.094799,138.023897 137.213293,130.181775 124.177913,130.181775 Z M781.880207,267.968778 C781.365631,267.515595 777.045268,265.233262 765.769499,257.026715 C731.68318,232.219889 739.294755,214.969392 747.096274,207.340817 C752.991446,201.574232 760.727349,199.528342 768.684277,202.020847 C773.95436,203.669381 778.347248,207.416348 780.909766,212.201037 C781.289654,212.913651 781.869846,214.286334 781.869846,214.286334 C781.887114,214.286334 782.47076,212.913651 782.850648,212.201037 C785.409712,207.416348 789.806053,203.669381 795.076137,202.020847 C803.029611,199.528342 810.768967,201.574232 816.664139,207.340817 C822.153176,212.708173 827.548184,222.838695 818.392033,237.01294 C814.534627,242.984425 808.09459,249.673615 797.990914,257.026715 C786.715146,265.233262 782.394783,267.515595 781.880207,267.968778 Z" id="Fill-1"></path>
        </g>
    </g>
</svg>
